<?xml version="1.0" encoding="UTF-8"?>
<svg xmlns="http://www.w3.org/2000/svg" viewBox="0 0 383.35 44.04">
  <defs>
    <style>
      .cls-1 {
        fill: #fff;
      }

      .cls-2 {
        fill: #04b9e8;
      }
    </style>
  </defs>
  <g id="Vrstva_1" data-name="Vrstva 1">
    <path d="m0,42.79V1.25C0,.44.44,0,1.25,0h33.75c.81,0,1.25.44,1.25,1.25v3.43c0,.81-.44,1.25-1.25,1.25H6.11v12.79h19.59c.81,0,1.25.44,1.25,1.25v3.24c0,.81-.44,1.25-1.25,1.25H6.11v18.34c0,.81-.44,1.25-1.25,1.25H1.25c-.81,0-1.25-.44-1.25-1.25Z"/>
    <path d="m122.58,30.32l8.55,12.23c.56.81.19,1.5-.81,1.5h-4.3c-.62,0-1.12-.25-1.5-.81l-8.36-12.29h-18.78v11.85c0,.81-.44,1.25-1.25,1.25h-3.62c-.81,0-1.25-.44-1.25-1.25V1.25c0-.81.44-1.25,1.25-1.25h22.58c13.1,0,17.47,4.8,17.47,15.22v.75c0,7.98-2.5,12.79-9.98,14.35Zm3.81-15.03c0-7.67-2.87-9.36-11.67-9.36h-17.34v19.15h17.34c8.73,0,11.67-1.62,11.67-9.17v-.62Z"/>
    <path d="m139.12,42.79V1.25c0-.81.44-1.25,1.25-1.25h4.49c.69,0,1.12.19,1.5.81l17.84,28.57L182.04.81c.37-.62.81-.81,1.5-.81h4.43c.81,0,1.25.44,1.25,1.25v41.54c0,.81-.44,1.25-1.25,1.25h-3.62c-.81,0-1.25-.44-1.25-1.25V10.11l-16.16,25.39c-.37.62-.87.81-1.5.81h-2.56c-.69,0-1.12-.19-1.5-.81l-16.16-25.45v32.75c0,.81-.44,1.25-1.25,1.25h-3.62c-.81,0-1.25-.44-1.25-1.25Z"/>
    <path d="m237.18,43.1l-3.74-7.42h-29.19l-3.81,7.49c-.31.62-.75.87-1.43.87h-4.18c-.94,0-1.37-.62-.94-1.5L215.23.87c.31-.62.75-.87,1.43-.87h4.37c.69,0,1.12.25,1.43.87l21.27,41.67c.44.87,0,1.5-.94,1.5h-4.18c-.69,0-1.12-.31-1.43-.94Zm-6.36-12.66l-11.91-23.83-12.04,23.83h23.95Z"/>
    <path d="m255.46,42.79V5.93h-15.03c-.81,0-1.25-.44-1.25-1.25V1.25c0-.81.44-1.25,1.25-1.25h36.24c.81,0,1.25.44,1.25,1.25v3.43c0,.81-.44,1.25-1.25,1.25h-15.03v36.87c0,.81-.44,1.25-1.25,1.25h-3.68c-.81,0-1.25-.44-1.25-1.25Z"/>
    <path d="m282.92,42.79V1.25c0-.81.44-1.25,1.25-1.25h3.62c.81,0,1.25.44,1.25,1.25v41.54c0,.81-.44,1.25-1.25,1.25h-3.62c-.81,0-1.25-.44-1.25-1.25Z"/>
    <path d="m313.67,43.1L293.65,1.5c-.44-.87,0-1.5.94-1.5h4.05c.69,0,1.12.25,1.43.94l17.59,36.43L335.07.94c.31-.69.75-.94,1.43-.94h4.05c.94,0,1.31.62.94,1.5l-19.96,41.61c-.31.69-.75.94-1.43.94h-4.99c-.69,0-1.12-.25-1.44-.94Z"/>
    <path d="m346.11,42.79V1.25c0-.81.44-1.25,1.25-1.25h34.74c.81,0,1.25.44,1.25,1.25v3.43c0,.81-.44,1.25-1.25,1.25h-29.88v12.79h20.33c.81,0,1.25.44,1.25,1.25v3.24c0,.81-.44,1.25-1.25,1.25h-20.33v13.66h29.88c.81,0,1.25.44,1.25,1.25v3.43c0,.81-.44,1.25-1.25,1.25h-34.74c-.81,0-1.25-.44-1.25-1.25Z"/>
  </g>
  <g id="Vrstva_2" data-name="Vrstva 2">
    <path class="cls-2" d="m38.99,28.88v-13.66c0-9.73,4.05-15.22,14.78-15.22h15.66c10.73,0,14.78,5.49,14.78,15.22v13.66c0,9.67-4.05,15.16-14.78,15.16h-15.66c-10.73,0-14.78-5.49-14.78-15.16Z"/>
    <path class="cls-1" d="m62.5,30.3l-4.78,4.78-13.56-13.56,4.78-4.78,12.25,12.25,1.31,1.31Z"/>
    <path class="cls-1" d="m57.71,35.08l-4.78-4.78,21.35-21.35,4.78,4.78c-6.43,6.43-12.86,12.86-19.28,19.28l-2.06,2.06Z"/>
  </g>
</svg>