<svg id="SvgjsSvg1001" width="288" height="288" xmlns="http://www.w3.org/2000/svg" version="1.1" xmlns:xlink="http://www.w3.org/1999/xlink" xmlns:svgjs="http://svgjs.com/svgjs"><defs id="SvgjsDefs1002"></defs><g id="SvgjsG1008"><svg xmlns="http://www.w3.org/2000/svg" viewBox="0 0 288 288" width="288" height="288"><path fill="#3c3c3b" d="M154.4 265.7c-4.13.15-8.26.4-12.39.41-2.6 0-5.21-.29-7.81-.54-2.64-.26-5.28-.53-7.89-.97-2.83-.47-5.65-1.09-8.45-1.74-2.71-.63-5.4-1.33-8.08-2.08-1.46-.41-2.88-.98-4.32-1.47-1.62-.54-3.27-1-4.85-1.62-1.69-.66-3.34-1.47-4.99-2.23-1.55-.71-3.15-1.36-4.64-2.19-4.41-2.45-8.85-4.85-13.15-7.49-2.95-1.81-5.7-3.96-8.49-6.01-1.78-1.3-3.57-2.61-5.19-4.09-2.56-2.33-5.07-4.74-7.44-7.26-2.95-3.15-6-6.26-8.56-9.71-6.14-8.28-11.79-16.9-15.67-26.53-1.62-4.01-3.31-8.01-4.62-12.12-1.32-4.14-2.28-8.4-3.28-12.63-.68-2.89-1.2-5.82-1.73-8.75-.21-1.19-.25-2.41-.38-3.62-.19-1.86-.43-3.73-.57-5.59-.08-1.08-.02-2.16-.02-3.24 0-3.21 0-6.43 0-9.64 0-1.17-.26-2.45.1-3.5.3-.87.4-1.67.49-2.54.14-1.48.33-2.96.57-4.43.26-1.61.53-3.21.9-4.79.67-2.81 1.35-5.62 2.17-8.39.63-2.13 1.51-4.25 3.13-5.8 1.66-1.59 3.75-2.57 6.13-2.56 4.54.03 8.92 4.18 8.61 8.29-.18 2.4-.89 4.75-1.36 7.13-.56 2.87-1.15 5.72-1.64 8.6-1.23 7.26-.64 14.59-.77 21.9-.01.59-.17 1.17-.15 1.75 0 .34.29.66.34 1.01.22 1.67.36 3.35.6 5.02.34 2.34.67 4.68 1.13 6.99.5 2.47 1.03 4.94 1.74 7.35 2.29 7.79 5.24 15.31 9.33 22.35 3.46 5.94 7.26 11.65 11.82 16.82 6.25 7.09 13.22 13.35 21.08 18.66 6.51 4.4 13.41 8 20.71 10.85 4.73 1.84 9.58 3.31 14.54 4.39 2.55.56 5.15.89 7.75 1.15 3.16.31 6.35.46 9.52.6 2.75.12 5.51.23 8.26.17 2.76-.06 5.51-.35 8.26-.53 1.82-.12 3.64-.23 5.45-.39.74-.07 1.45-.3 2.19-.41.89-.13 1.8-.17 2.68-.33 5-.93 9.92-2.24 14.67-4.05 6.9-2.64 13.63-5.63 19.82-9.75 6.12-4.07 11.56-8.95 16.88-13.98 2.2-2.08 4.18-4.4 6.26-6.61 1.93-2.05 4.19-3.42 7.1-3.22 3.91.26 7.77 3.3 8.59 7 .63 2.83 0 5.25-1.79 7.25-3.15 3.52-6.47 6.9-9.81 10.24-2.11 2.11-4.26 4.22-6.63 6-4.5 3.39-8.97 6.82-13.88 9.66-6.74 3.91-13.69 7.34-21.03 9.91-4.34 1.52-8.77 2.78-13.22 3.93-4.35 1.12-8.76 1.98-13.17 2.85-1.6.31-3.25.32-4.88.46 0 .03 0 .05 0 .08zM246.01 167.59c.28-1.97.61-4.04.87-6.11.23-1.83.37-3.68.6-5.51.62-5.01.63-10.04.54-15.06-.04-2.47-.35-4.94-.55-7.42-.12-1.6-.21-3.2-.4-4.79-.19-1.62-.39-3.25-.73-4.85-.56-2.64-1.19-5.27-1.89-7.87-.67-2.46-1.43-4.91-2.25-7.33-.45-1.33-1.13-2.58-1.66-3.88-.22-.54-.21-1.17-.46-1.69-1.63-3.29-3.28-6.57-4.97-9.83-.88-1.7-1.81-3.38-2.81-5.01-.58-.94-1.39-1.74-2.04-2.64-.36-.51-.53-1.17-.9-1.67-3.54-4.83-7.36-9.41-11.84-13.42-3.1-2.78-6.09-5.68-9.25-8.38-2.19-1.87-4.54-3.57-6.89-5.24-1.64-1.17-3.35-2.26-5.13-3.2-3.57-1.89-7.13-3.82-10.83-5.44-5.06-2.22-10.29-4.07-15.68-5.35-2.15-.51-4.34-.86-6.53-1.15-2.53-.34-5.07-.54-7.61-.78-2.34-.21-4.68-.39-7.01-.58-.06 0-.14.02-.19 0-1.48-.81-3.06-.39-4.6-.37-1.65.02-3.29.1-4.93.19-1.98.1-3.96.17-5.92.39-2.62.3-5.24.67-7.84 1.12-2.15.37-4.29.81-6.4 1.37-3.34.89-6.68 1.77-9.95 2.88-10.06 3.43-19.28 8.45-27.59 15.07-2.9 2.31-5.57 4.91-8.34 7.38-1.84 1.64-3.65 3.32-6.22 3.74-2.36.38-4.48-.12-6.35-1.67-.96-.79-1.86-1.59-2.53-2.7-.71-1.17-1.08-2.41-1.25-3.69-.36-2.75.79-5.05 2.64-6.95 2.02-2.07 4.13-4.07 6.33-5.95 4.73-4.05 9.77-7.7 15.06-10.99 4.62-2.87 9.37-5.51 14.38-7.59 4.41-1.83 8.92-3.42 13.43-5 2.37-.83 4.8-1.51 7.24-2.1 3.45-.84 6.92-1.6 10.41-2.27 2.31-.44 4.66-.83 7.01-.96 4.45-.25 8.91-.41 13.37-.4 3.18 0 6.36.26 9.53.58 3.35.33 6.7.71 10 1.34 3.32.64 6.58 1.58 9.84 2.46 7.67 2.07 15.07 4.85 22.18 8.4 6.66 3.33 12.97 7.25 18.9 11.75 3.41 2.59 6.69 5.36 9.88 8.22 2.36 2.11 4.48 4.49 6.7 6.75 2.79 2.85 5.26 5.97 7.66 9.15 2.16 2.86 4.14 5.85 6.1 8.85 1.39 2.13 2.71 4.32 3.9 6.57 2.88 5.44 5.55 10.99 7.56 16.81 1.18 3.42 2.21 6.89 3.16 10.38.96 3.51 1.81 7.05 2.56 10.61.5 2.38.83 4.8 1.06 7.22.34 3.56.64 7.14.75 10.71.1 3.07-.02 6.16-.19 9.23-.14 2.75-.33 5.52-.76 8.24-.6 3.81-1.2 7.65-2.25 11.35-1 3.51-3.66 5.46-7.36 5.9-5.17.62-8.29-2.85-9.16-5.91-.25-.89-.29-1.84-.45-2.89z" class="color010101 svgShape"></path><path fill="#3c3c3b" d="M144.69 94.82c-4.59-.01-8.58 1.01-12.08 3.64-3.34 2.51-5.56 5.77-6.42 9.88-.23 1.09-.32 2.22-.39 3.34-.16 2.59-.18 5.22-1.02 7.7-.89 2.62-2.79 4.32-5.39 5.21-.82.28-1.67.5-2.53.59-3.29.34-7.07-2.44-8.17-5.19-.95-2.36-1.4-4.74-1.08-7.33.39-3.18.85-6.33 1.77-9.4 3.15-10.61 9.89-18.2 19.7-23.12 2.86-1.43 5.9-2.47 9.11-2.86 2.02-.25 4.05-.6 6.07-.54 2.23.07 4.46.51 6.67.88 1.39.23 2.76.6 4.13.97 4.74 1.3 8.97 3.54 12.63 6.83 4.87 4.38 8.37 9.7 10.7 15.78 1.21 3.16 2.19 6.41 2.23 9.84.03 2.58.18 5.18-.04 7.75-.25 3.02-.93 5.99-1.76 8.93-1.66 5.87-4.61 11-8.71 15.43-1.9 2.05-4.27 3.67-6.44 5.46-1.05.86-2.29 1.53-3.17 2.52-.71.81-1.7 1.19-2.39 1.96-.75.84-1.64 1.56-2.37 2.41-1.47 1.7-2.32 3.54-2.25 5.95.06 2-.55 4.03-.98 6.02-.79 3.61-3.5 5.41-6.7 6.52-1.44.5-3.03.4-4.49-.18-3.38-1.36-5.67-3.75-6.29-7.4-.22-1.27 0-2.64.17-3.95.24-1.89.51-3.78.95-5.63.75-3.12 2.03-6.03 3.62-8.84 1.04-1.83 2.4-3.36 3.77-4.87 2.73-3.02 5.85-5.65 9-8.24 2.48-2.04 4.97-4.09 6.62-6.93 1.47-2.54 2.44-5.28 2.73-8.21.24-2.51.5-5.04.37-7.54-.33-6.24-3.48-13.3-10.99-16.1-2.19-.82-4.45-1.44-6.57-1.3zM131.89 205.08c-.14-2.4.73-4.51 2.1-6.33 2.59-3.43 5.86-5.76 10.44-5.56 3.65.15 6.58 1.7 8.84 4.52 1.57 1.96 2.68 4.19 2.86 6.73.2 2.72-.73 5.17-2.27 7.37-1.32 1.89-3.16 3.17-5.17 4.29-1.33.74-2.72 1.03-4.15 1.13-3.08.21-5.76-.97-8.11-2.86-2.94-2.37-4.46-5.5-4.55-9.29z" class="color010101 svgShape"></path></svg></g></svg>