<svg id="SvgjsSvg1001" width="288" height="288" xmlns="http://www.w3.org/2000/svg" version="1.1" xmlns:xlink="http://www.w3.org/1999/xlink" xmlns:svgjs="http://svgjs.com/svgjs"><defs id="SvgjsDefs1002"></defs><g id="SvgjsG1008"><svg xmlns="http://www.w3.org/2000/svg" viewBox="0 0 48 48" width="288" height="288"><path fill="none" stroke="#04b9e8" stroke-linecap="round" stroke-linejoin="round" stroke-miterlimit="10" stroke-width="3" d="M13.4 13.8l-3.6 2.9c-1.4 1.1-2.3 2.9-2.3 4.7v18.1c0 1.1.9 2 2 2h20M35 41.5h3.5c1.1 0 2-.9 2-2V21.4c0-1.8-.8-3.6-2.3-4.7L24.6 6c-.4-.3-.9-.3-1.2 0l-4.6 3.6" class="colorStroke000 svgStroke"></path><path fill="none" stroke="#04b9e8" stroke-linecap="round" stroke-linejoin="round" stroke-miterlimit="10" stroke-width="3" d="M18.5,35.7v-8.2c0-0.6,0.4-1,1-1h8.9c0.6,0,1,0.4,1,1v14" class="colorStroke000 svgStroke"></path></svg></g></svg>