<svg id="SvgjsSvg1025" width="288" height="288" xmlns="http://www.w3.org/2000/svg" version="1.1" xmlns:xlink="http://www.w3.org/1999/xlink" xmlns:svgjs="http://svgjs.com/svgjs"><defs id="SvgjsDefs1026"></defs><g id="SvgjsG1027"><svg xmlns="http://www.w3.org/2000/svg" viewBox="0 0 48 48" width="288" height="288"><path fill="none" stroke="#3c3c3b" stroke-linecap="round" stroke-linejoin="round" stroke-width="3" d="M5.5 18.7v5.6 12.2c0 1.7 1.3 3 3 3h29M40.5 16.5c0-1.7-1.3-3-3-3h-15l-4.9-4.1c-.7-.6-1.6-.9-2.6-.9H8.5c-1.7 0-3 1.3-3 3V13" class="colorStroke000 svgStroke"></path><path fill="none" stroke="#3c3c3b" stroke-linecap="round" stroke-linejoin="round" stroke-miterlimit="10" stroke-width="3" d="M16.4,39.5h20.9c1.3,0,2.5-0.8,3-2.1l5.3-13.1c0.5-1.4-0.5-2.9-2-2.9H16.9c-1.3,0-2.5,0.8-3,2.1l-0.7,2" class="colorStroke000 svgStroke"></path></svg></g></svg>